<svg version="1.2" xmlns="http://www.w3.org/2000/svg" viewBox="0 0 120 125" width="120" height="125">
	<title>13719219_5337979-svg</title>
	<defs>
		<linearGradient id="g1" x1="93.8" y1="81.1" x2="13.7" y2="1" gradientUnits="userSpaceOnUse">
			<stop offset="0" stop-color="#1d3e77"/>
			<stop offset="1" stop-color="#2d0554"/>
		</linearGradient>
		<linearGradient id="g2" x1="29" y1="32.5" x2="94.4" y2="32.5" gradientUnits="userSpaceOnUse">
			<stop offset="0" stop-color="#68dfff"/>
			<stop offset="1" stop-color="#316fad"/>
		</linearGradient>
		<linearGradient id="g3" x1="32.9" y1="76.1" x2="98.4" y2="76.1" gradientUnits="userSpaceOnUse">
			<stop offset="0" stop-color="#68dfff"/>
			<stop offset="1" stop-color="#316fad"/>
		</linearGradient>
		<linearGradient id="g4" x1="58.1" y1="64.8" x2="110.8" y2="64.8" gradientUnits="userSpaceOnUse">
			<stop offset="0" stop-color="#ef3f80"/>
			<stop offset="1" stop-color="#b71c71"/>
		</linearGradient>
	</defs>
	<style>
		tspan { white-space:pre } 
		.s0 { fill: url(#g1) } 
		.s1 { fill: url(#g2) } 
		.s2 { fill: url(#g3) } 
		.s3 { fill: url(#g4) } 
		.t4 { font-size: 12px;fill: #1e3c76;font-weight: 800;font-family: "' Archivo Black" } 
	</style>
	<g id="OBJECTS">
		<g id="Layer">
			<g id="Layer">
				<path id="Layer" class="s0" d="m110.5 62.4q0 0 0 0.1-0.6 2.2-1.3 4.3-0.3 0.7-0.6 1.4-0.2 0.8-0.5 1.5-0.6 1.4-1.3 2.8-1.7 3.4-3.9 6.4 0 0 0 0.1-0.7 1-1.6 2.1c-5.7 7.1-13.5 12.6-22.3 15.6-4.8 1.6-10 2.5-15.3 2.5-26.6 0-48.2-21.6-48.2-48.2 0-21.2 13.8-39.2 32.9-45.6q0.5-0.2 0.9-0.3c4.6-1.4 9.4-2.2 14.4-2.2 20.3 0 37.7 12.6 44.8 30.4q0 0 0 0.1 0.2 0.5 0.4 1.1 0 0 0 0 0.3 1 0.3 2.1c0 4.3-3.4 7.7-7.6 7.7-3.3 0-6.1-2.1-7.2-5q0 0 0 0c-4.8-12.4-16.7-21.1-30.7-21.1-18.1 0-32.8 14.7-32.8 32.8 0 3.4 0.5 6.7 1.4 9.8q0.3 0.8 0.6 1.6c4.6 12.5 16.7 21.5 30.8 21.5 11.8 0 22.2-6.3 28-15.7 2.5-4.1 4.1-8.8 4.6-13.9h7.8c4.2 0 7.4 4 6.4 8.1z"/>
				<path id="Layer" class="s1" d="m94.4 39.3c-4.8-12.3-16.7-21.1-30.7-21.1-18.1 0-32.8 14.7-32.8 32.8 0 3.4 0.5 6.7 1.4 9.8-8.1-25-0.9-49.7 16.1-55.4q0.5-0.2 0.9-0.3c16.7-4.8 36.3 10 44.9 33.8q0.1 0.2 0.2 0.4z"/>
				<path id="Layer" class="s2" d="m98 68.2q0 0.4-0.1 0.8-0.1 1.2-0.3 2.4c-2.3 12.4-8.8 22-18.6 25.3-17 5.7-37.4-9.6-46.1-34.3 4.7 12.6 16.7 21.5 30.8 21.5 11.8 0 22.2-6.3 28-15.7 2.5-4.1 4.2-8.8 4.7-13.9h1.5q0.2 1.7 0.3 3.3c0.3 3.7 0.2 7.2-0.2 10.6z"/>
				<path id="Layer" class="s3" d="m110.9 59.4q0 1-0.3 1.9 0 0.5-0.1 1.1 0 0 0 0.1-0.6 2.2-1.3 4.3-0.3 0.7-0.6 1.4-0.2 0.8-0.5 1.5-0.6 1.4-1.3 2.8-1.7 3.4-3.9 6.5 0-0.1 0-0.1c2.3-4.4 0-10-8.4-10.6h-27.5c-4.9 0-8.9-4-8.9-8.9 0-2.4 1-4.6 2.6-6.2 1.6-1.7 3.8-2.6 6.3-2.6h35c4.9 0 8.9 3.9 8.9 8.8z"/>
			</g>
			<text id="Gabble" style="transform: matrix(1,0,0,1,41.545,117.489)" >
				<tspan x="0" y="0" class="t4">G</tspan><tspan  y="0" class="t4">a</tspan><tspan  y="0" class="t4">b</tspan><tspan  y="0" class="t4">b</tspan><tspan  y="0" class="t4">l</tspan><tspan  y="0" class="t4">e</tspan><tspan  y="0" class="t4">
</tspan>
			</text>
		</g>
	</g>
</svg>